# Blender v2.91.0 OBJ File: ''
# www.blender.org
mtllib iav_b_plate_shsr2.mtl
o ObjObject
v 0.375000 0.093750 0.000564
v 0.375000 0.093750 -0.015061
v -0.375000 0.093750 -0.015061
v -0.375000 0.093750 0.000564
v -0.375000 -0.093750 0.000564
v -0.375000 -0.093750 -0.015061
v 0.375000 -0.093750 -0.015061
v 0.375000 -0.093750 0.000564
vt 0.391667 0.192035
vt 0.391667 0.185151
vt 0.061253 0.185151
vt 0.061253 0.192035
vt 0.061253 0.192035
vt 0.061253 0.198919
vt 0.391667 0.198919
vt 0.391667 0.192035
vt 0.143856 0.178268
vt 0.143856 0.185151
vt 0.226460 0.185151
vt 0.226460 0.178268
vt 0.061253 0.178268
vt 0.143856 0.185151
vt 0.143856 0.178268
vt 0.061253 0.281522
vt 0.391667 0.281522
vt 0.656861 0.903373
vt 0.010156 0.903373
vt 0.010156 0.738023
vt 0.656861 0.738023
vn 0.0000 1.0000 0.0000
vn 0.0000 -1.0000 0.0000
vn 1.0000 0.0000 0.0000
vn -1.0000 0.0000 0.0000
vn 0.0000 0.0000 -1.0000
vn 0.0000 -0.0000 1.0000
usemtl ModelMaterial
s 1
f 1/1/1 2/2/1 3/3/1 4/4/1
f 5/5/2 6/6/2 7/7/2 8/8/2
f 2/9/3 1/10/3 8/11/3 7/12/3
f 4/13/4 3/3/4 6/14/4 5/15/4
f 3/16/5 2/17/5 7/7/5 6/6/5
f 1/18/6 4/19/6 5/20/6 8/21/6
